<svg width="19" height="15" viewBox="0 0 19 15" fill="none" xmlns="http://www.w3.org/2000/svg">
<path d="M18.7964 11.3756C18.0891 10.32 15.633 9.17541 15.5249 9.12536C15.2093 8.98354 14.8799 8.90846 14.5717 8.90846C14.1135 8.90846 13.7384 9.07419 13.5112 9.37563C13.1519 9.71488 12.7063 10.1114 12.5982 10.1729C11.7613 10.6211 11.1062 10.5702 10.3813 9.99796L6.33555 6.8037C5.61524 6.23503 5.54902 5.71141 6.11294 5.05432C6.19184 4.96839 6.69412 4.61635 7.12384 4.33243C7.39788 4.20368 7.58597 4.01237 7.66839 3.77767C7.77793 3.46539 7.69727 3.09805 7.43874 2.74017C7.3778 2.65786 5.92732 0.718551 4.59095 0.160452C4.34158 0.056173 4.0605 0.00111389 3.77871 0.00111389C3.31447 0.00111389 2.87771 0.144045 2.54943 0.402934L1.65547 1.10841C0.241616 2.22434 -0.270174 3.4893 0.133482 4.86801C0.470214 6.01702 1.45153 7.23972 3.05065 8.50191L8.2302 12.591C10.2541 14.1889 12.1836 14.9992 13.9652 14.9992C15.2759 14.9992 16.497 14.5595 17.5953 13.6928L18.4889 12.9873C19.032 12.5588 19.1553 11.9108 18.7964 11.3756Z" fill="white"/>
</svg>
